<svg xmlns="http://www.w3.org/2000/svg" width="920" height="692" viewBox="0 0 920 692">
<rect width="100%" height="100%" fill="#fbfbfb"/>
<text x="460" y="42" text-anchor="middle" font-family="Hiragino Sans GB, Arial Unicode MS, sans-serif" font-size="26" font-weight="700">实验结果截图</text>
<text x="460" y="68" text-anchor="middle" font-family="Hiragino Sans GB, Arial Unicode MS, sans-serif" font-size="14" fill="#666">CSV 指标包括胜率、耗时、步数与搜索节点数</text>
<rect x="147" y="92" width="625" height="576" fill="#fff" stroke="#d2d2d2"/>
<rect x="147" y="92" width="90" height="36" fill="#e9eef8" stroke="#d2d2d2"/>
<text x="192.0" y="119" text-anchor="middle" font-family="Hiragino Sans GB, Arial Unicode MS, sans-serif" font-size="12" font-weight="700">模拟次数</text>
<rect x="237" y="92" width="70" height="36" fill="#e9eef8" stroke="#d2d2d2"/>
<text x="272.0" y="119" text-anchor="middle" font-family="Hiragino Sans GB, Arial Unicode MS, sans-serif" font-size="12" font-weight="700">UCT c</text>
<rect x="307" y="92" width="85" height="36" fill="#e9eef8" stroke="#d2d2d2"/>
<text x="349.5" y="119" text-anchor="middle" font-family="Hiragino Sans GB, Arial Unicode MS, sans-serif" font-size="12" font-weight="700">黑胜率</text>
<rect x="392" y="92" width="85" height="36" fill="#e9eef8" stroke="#d2d2d2"/>
<text x="434.5" y="119" text-anchor="middle" font-family="Hiragino Sans GB, Arial Unicode MS, sans-serif" font-size="12" font-weight="700">白胜率</text>
<rect x="477" y="92" width="95" height="36" fill="#e9eef8" stroke="#d2d2d2"/>
<text x="524.5" y="119" text-anchor="middle" font-family="Hiragino Sans GB, Arial Unicode MS, sans-serif" font-size="12" font-weight="700">每步耗时</text>
<rect x="572" y="92" width="95" height="36" fill="#e9eef8" stroke="#d2d2d2"/>
<text x="619.5" y="119" text-anchor="middle" font-family="Hiragino Sans GB, Arial Unicode MS, sans-serif" font-size="12" font-weight="700">平均步数</text>
<rect x="667" y="92" width="105" height="36" fill="#e9eef8" stroke="#d2d2d2"/>
<text x="719.5" y="119" text-anchor="middle" font-family="Hiragino Sans GB, Arial Unicode MS, sans-serif" font-size="12" font-weight="700">平均节点</text>
<rect x="147" y="128" width="90" height="36" fill="#ffffff" stroke="#d2d2d2"/>
<text x="192.0" y="155" text-anchor="middle" font-family="Arial, sans-serif" font-size="11">50</text>
<rect x="237" y="128" width="70" height="36" fill="#ffffff" stroke="#d2d2d2"/>
<text x="272.0" y="155" text-anchor="middle" font-family="Arial, sans-serif" font-size="11">0.5</text>
<rect x="307" y="128" width="85" height="36" fill="#ffffff" stroke="#d2d2d2"/>
<text x="349.5" y="155" text-anchor="middle" font-family="Arial, sans-serif" font-size="11">0.600</text>
<rect x="392" y="128" width="85" height="36" fill="#ffffff" stroke="#d2d2d2"/>
<text x="434.5" y="155" text-anchor="middle" font-family="Arial, sans-serif" font-size="11">0.400</text>
<rect x="477" y="128" width="95" height="36" fill="#ffffff" stroke="#d2d2d2"/>
<text x="524.5" y="155" text-anchor="middle" font-family="Arial, sans-serif" font-size="11">1.119</text>
<rect x="572" y="128" width="95" height="36" fill="#ffffff" stroke="#d2d2d2"/>
<text x="619.5" y="155" text-anchor="middle" font-family="Arial, sans-serif" font-size="11">75.4</text>
<rect x="667" y="128" width="105" height="36" fill="#ffffff" stroke="#d2d2d2"/>
<text x="719.5" y="155" text-anchor="middle" font-family="Arial, sans-serif" font-size="11">50.0</text>
<rect x="147" y="164" width="90" height="36" fill="#f8fafc" stroke="#d2d2d2"/>
<text x="192.0" y="191" text-anchor="middle" font-family="Arial, sans-serif" font-size="11">50</text>
<rect x="237" y="164" width="70" height="36" fill="#f8fafc" stroke="#d2d2d2"/>
<text x="272.0" y="191" text-anchor="middle" font-family="Arial, sans-serif" font-size="11">1.414</text>
<rect x="307" y="164" width="85" height="36" fill="#f8fafc" stroke="#d2d2d2"/>
<text x="349.5" y="191" text-anchor="middle" font-family="Arial, sans-serif" font-size="11">0.600</text>
<rect x="392" y="164" width="85" height="36" fill="#f8fafc" stroke="#d2d2d2"/>
<text x="434.5" y="191" text-anchor="middle" font-family="Arial, sans-serif" font-size="11">0.400</text>
<rect x="477" y="164" width="95" height="36" fill="#f8fafc" stroke="#d2d2d2"/>
<text x="524.5" y="191" text-anchor="middle" font-family="Arial, sans-serif" font-size="11">1.025</text>
<rect x="572" y="164" width="95" height="36" fill="#f8fafc" stroke="#d2d2d2"/>
<text x="619.5" y="191" text-anchor="middle" font-family="Arial, sans-serif" font-size="11">79.8</text>
<rect x="667" y="164" width="105" height="36" fill="#f8fafc" stroke="#d2d2d2"/>
<text x="719.5" y="191" text-anchor="middle" font-family="Arial, sans-serif" font-size="11">49.5</text>
<rect x="147" y="200" width="90" height="36" fill="#ffffff" stroke="#d2d2d2"/>
<text x="192.0" y="227" text-anchor="middle" font-family="Arial, sans-serif" font-size="11">50</text>
<rect x="237" y="200" width="70" height="36" fill="#ffffff" stroke="#d2d2d2"/>
<text x="272.0" y="227" text-anchor="middle" font-family="Arial, sans-serif" font-size="11">2.0</text>
<rect x="307" y="200" width="85" height="36" fill="#ffffff" stroke="#d2d2d2"/>
<text x="349.5" y="227" text-anchor="middle" font-family="Arial, sans-serif" font-size="11">0.400</text>
<rect x="392" y="200" width="85" height="36" fill="#ffffff" stroke="#d2d2d2"/>
<text x="434.5" y="227" text-anchor="middle" font-family="Arial, sans-serif" font-size="11">0.600</text>
<rect x="477" y="200" width="95" height="36" fill="#ffffff" stroke="#d2d2d2"/>
<text x="524.5" y="227" text-anchor="middle" font-family="Arial, sans-serif" font-size="11">1.103</text>
<rect x="572" y="200" width="95" height="36" fill="#ffffff" stroke="#d2d2d2"/>
<text x="619.5" y="227" text-anchor="middle" font-family="Arial, sans-serif" font-size="11">63.6</text>
<rect x="667" y="200" width="105" height="36" fill="#ffffff" stroke="#d2d2d2"/>
<text x="719.5" y="227" text-anchor="middle" font-family="Arial, sans-serif" font-size="11">50.4</text>
<rect x="147" y="236" width="90" height="36" fill="#f8fafc" stroke="#d2d2d2"/>
<text x="192.0" y="263" text-anchor="middle" font-family="Arial, sans-serif" font-size="11">100</text>
<rect x="237" y="236" width="70" height="36" fill="#f8fafc" stroke="#d2d2d2"/>
<text x="272.0" y="263" text-anchor="middle" font-family="Arial, sans-serif" font-size="11">0.5</text>
<rect x="307" y="236" width="85" height="36" fill="#f8fafc" stroke="#d2d2d2"/>
<text x="349.5" y="263" text-anchor="middle" font-family="Arial, sans-serif" font-size="11">0.400</text>
<rect x="392" y="236" width="85" height="36" fill="#f8fafc" stroke="#d2d2d2"/>
<text x="434.5" y="263" text-anchor="middle" font-family="Arial, sans-serif" font-size="11">0.600</text>
<rect x="477" y="236" width="95" height="36" fill="#f8fafc" stroke="#d2d2d2"/>
<text x="524.5" y="263" text-anchor="middle" font-family="Arial, sans-serif" font-size="11">2.272</text>
<rect x="572" y="236" width="95" height="36" fill="#f8fafc" stroke="#d2d2d2"/>
<text x="619.5" y="263" text-anchor="middle" font-family="Arial, sans-serif" font-size="11">79.4</text>
<rect x="667" y="236" width="105" height="36" fill="#f8fafc" stroke="#d2d2d2"/>
<text x="719.5" y="263" text-anchor="middle" font-family="Arial, sans-serif" font-size="11">98.1</text>
<rect x="147" y="272" width="90" height="36" fill="#ffffff" stroke="#d2d2d2"/>
<text x="192.0" y="299" text-anchor="middle" font-family="Arial, sans-serif" font-size="11">100</text>
<rect x="237" y="272" width="70" height="36" fill="#ffffff" stroke="#d2d2d2"/>
<text x="272.0" y="299" text-anchor="middle" font-family="Arial, sans-serif" font-size="11">1.414</text>
<rect x="307" y="272" width="85" height="36" fill="#ffffff" stroke="#d2d2d2"/>
<text x="349.5" y="299" text-anchor="middle" font-family="Arial, sans-serif" font-size="11">0.200</text>
<rect x="392" y="272" width="85" height="36" fill="#ffffff" stroke="#d2d2d2"/>
<text x="434.5" y="299" text-anchor="middle" font-family="Arial, sans-serif" font-size="11">0.800</text>
<rect x="477" y="272" width="95" height="36" fill="#ffffff" stroke="#d2d2d2"/>
<text x="524.5" y="299" text-anchor="middle" font-family="Arial, sans-serif" font-size="11">1.968</text>
<rect x="572" y="272" width="95" height="36" fill="#ffffff" stroke="#d2d2d2"/>
<text x="619.5" y="299" text-anchor="middle" font-family="Arial, sans-serif" font-size="11">65.6</text>
<rect x="667" y="272" width="105" height="36" fill="#ffffff" stroke="#d2d2d2"/>
<text x="719.5" y="299" text-anchor="middle" font-family="Arial, sans-serif" font-size="11">98.0</text>
<rect x="147" y="308" width="90" height="36" fill="#f8fafc" stroke="#d2d2d2"/>
<text x="192.0" y="335" text-anchor="middle" font-family="Arial, sans-serif" font-size="11">100</text>
<rect x="237" y="308" width="70" height="36" fill="#f8fafc" stroke="#d2d2d2"/>
<text x="272.0" y="335" text-anchor="middle" font-family="Arial, sans-serif" font-size="11">2.0</text>
<rect x="307" y="308" width="85" height="36" fill="#f8fafc" stroke="#d2d2d2"/>
<text x="349.5" y="335" text-anchor="middle" font-family="Arial, sans-serif" font-size="11">0.800</text>
<rect x="392" y="308" width="85" height="36" fill="#f8fafc" stroke="#d2d2d2"/>
<text x="434.5" y="335" text-anchor="middle" font-family="Arial, sans-serif" font-size="11">0.200</text>
<rect x="477" y="308" width="95" height="36" fill="#f8fafc" stroke="#d2d2d2"/>
<text x="524.5" y="335" text-anchor="middle" font-family="Arial, sans-serif" font-size="11">2.103</text>
<rect x="572" y="308" width="95" height="36" fill="#f8fafc" stroke="#d2d2d2"/>
<text x="619.5" y="335" text-anchor="middle" font-family="Arial, sans-serif" font-size="11">82.2</text>
<rect x="667" y="308" width="105" height="36" fill="#f8fafc" stroke="#d2d2d2"/>
<text x="719.5" y="335" text-anchor="middle" font-family="Arial, sans-serif" font-size="11">98.7</text>
<rect x="147" y="344" width="90" height="36" fill="#ffffff" stroke="#d2d2d2"/>
<text x="192.0" y="371" text-anchor="middle" font-family="Arial, sans-serif" font-size="11">200</text>
<rect x="237" y="344" width="70" height="36" fill="#ffffff" stroke="#d2d2d2"/>
<text x="272.0" y="371" text-anchor="middle" font-family="Arial, sans-serif" font-size="11">0.5</text>
<rect x="307" y="344" width="85" height="36" fill="#ffffff" stroke="#d2d2d2"/>
<text x="349.5" y="371" text-anchor="middle" font-family="Arial, sans-serif" font-size="11">0.400</text>
<rect x="392" y="344" width="85" height="36" fill="#ffffff" stroke="#d2d2d2"/>
<text x="434.5" y="371" text-anchor="middle" font-family="Arial, sans-serif" font-size="11">0.600</text>
<rect x="477" y="344" width="95" height="36" fill="#ffffff" stroke="#d2d2d2"/>
<text x="524.5" y="371" text-anchor="middle" font-family="Arial, sans-serif" font-size="11">4.567</text>
<rect x="572" y="344" width="95" height="36" fill="#ffffff" stroke="#d2d2d2"/>
<text x="619.5" y="371" text-anchor="middle" font-family="Arial, sans-serif" font-size="11">66.0</text>
<rect x="667" y="344" width="105" height="36" fill="#ffffff" stroke="#d2d2d2"/>
<text x="719.5" y="371" text-anchor="middle" font-family="Arial, sans-serif" font-size="11">197.5</text>
<rect x="147" y="380" width="90" height="36" fill="#f8fafc" stroke="#d2d2d2"/>
<text x="192.0" y="407" text-anchor="middle" font-family="Arial, sans-serif" font-size="11">200</text>
<rect x="237" y="380" width="70" height="36" fill="#f8fafc" stroke="#d2d2d2"/>
<text x="272.0" y="407" text-anchor="middle" font-family="Arial, sans-serif" font-size="11">1.414</text>
<rect x="307" y="380" width="85" height="36" fill="#f8fafc" stroke="#d2d2d2"/>
<text x="349.5" y="407" text-anchor="middle" font-family="Arial, sans-serif" font-size="11">0.600</text>
<rect x="392" y="380" width="85" height="36" fill="#f8fafc" stroke="#d2d2d2"/>
<text x="434.5" y="407" text-anchor="middle" font-family="Arial, sans-serif" font-size="11">0.400</text>
<rect x="477" y="380" width="95" height="36" fill="#f8fafc" stroke="#d2d2d2"/>
<text x="524.5" y="407" text-anchor="middle" font-family="Arial, sans-serif" font-size="11">4.571</text>
<rect x="572" y="380" width="95" height="36" fill="#f8fafc" stroke="#d2d2d2"/>
<text x="619.5" y="407" text-anchor="middle" font-family="Arial, sans-serif" font-size="11">82.8</text>
<rect x="667" y="380" width="105" height="36" fill="#f8fafc" stroke="#d2d2d2"/>
<text x="719.5" y="407" text-anchor="middle" font-family="Arial, sans-serif" font-size="11">193.3</text>
<rect x="147" y="416" width="90" height="36" fill="#ffffff" stroke="#d2d2d2"/>
<text x="192.0" y="443" text-anchor="middle" font-family="Arial, sans-serif" font-size="11">200</text>
<rect x="237" y="416" width="70" height="36" fill="#ffffff" stroke="#d2d2d2"/>
<text x="272.0" y="443" text-anchor="middle" font-family="Arial, sans-serif" font-size="11">2.0</text>
<rect x="307" y="416" width="85" height="36" fill="#ffffff" stroke="#d2d2d2"/>
<text x="349.5" y="443" text-anchor="middle" font-family="Arial, sans-serif" font-size="11">0.200</text>
<rect x="392" y="416" width="85" height="36" fill="#ffffff" stroke="#d2d2d2"/>
<text x="434.5" y="443" text-anchor="middle" font-family="Arial, sans-serif" font-size="11">0.800</text>
<rect x="477" y="416" width="95" height="36" fill="#ffffff" stroke="#d2d2d2"/>
<text x="524.5" y="443" text-anchor="middle" font-family="Arial, sans-serif" font-size="11">4.168</text>
<rect x="572" y="416" width="95" height="36" fill="#ffffff" stroke="#d2d2d2"/>
<text x="619.5" y="443" text-anchor="middle" font-family="Arial, sans-serif" font-size="11">74.0</text>
<rect x="667" y="416" width="105" height="36" fill="#ffffff" stroke="#d2d2d2"/>
<text x="719.5" y="443" text-anchor="middle" font-family="Arial, sans-serif" font-size="11">196.7</text>
<rect x="147" y="452" width="90" height="36" fill="#f8fafc" stroke="#d2d2d2"/>
<text x="192.0" y="479" text-anchor="middle" font-family="Arial, sans-serif" font-size="11">300</text>
<rect x="237" y="452" width="70" height="36" fill="#f8fafc" stroke="#d2d2d2"/>
<text x="272.0" y="479" text-anchor="middle" font-family="Arial, sans-serif" font-size="11">0.5</text>
<rect x="307" y="452" width="85" height="36" fill="#f8fafc" stroke="#d2d2d2"/>
<text x="349.5" y="479" text-anchor="middle" font-family="Arial, sans-serif" font-size="11">0.400</text>
<rect x="392" y="452" width="85" height="36" fill="#f8fafc" stroke="#d2d2d2"/>
<text x="434.5" y="479" text-anchor="middle" font-family="Arial, sans-serif" font-size="11">0.600</text>
<rect x="477" y="452" width="95" height="36" fill="#f8fafc" stroke="#d2d2d2"/>
<text x="524.5" y="479" text-anchor="middle" font-family="Arial, sans-serif" font-size="11">6.300</text>
<rect x="572" y="452" width="95" height="36" fill="#f8fafc" stroke="#d2d2d2"/>
<text x="619.5" y="479" text-anchor="middle" font-family="Arial, sans-serif" font-size="11">73.2</text>
<rect x="667" y="452" width="105" height="36" fill="#f8fafc" stroke="#d2d2d2"/>
<text x="719.5" y="479" text-anchor="middle" font-family="Arial, sans-serif" font-size="11">291.7</text>
<rect x="147" y="488" width="90" height="36" fill="#ffffff" stroke="#d2d2d2"/>
<text x="192.0" y="515" text-anchor="middle" font-family="Arial, sans-serif" font-size="11">300</text>
<rect x="237" y="488" width="70" height="36" fill="#ffffff" stroke="#d2d2d2"/>
<text x="272.0" y="515" text-anchor="middle" font-family="Arial, sans-serif" font-size="11">1.414</text>
<rect x="307" y="488" width="85" height="36" fill="#ffffff" stroke="#d2d2d2"/>
<text x="349.5" y="515" text-anchor="middle" font-family="Arial, sans-serif" font-size="11">0.600</text>
<rect x="392" y="488" width="85" height="36" fill="#ffffff" stroke="#d2d2d2"/>
<text x="434.5" y="515" text-anchor="middle" font-family="Arial, sans-serif" font-size="11">0.400</text>
<rect x="477" y="488" width="95" height="36" fill="#ffffff" stroke="#d2d2d2"/>
<text x="524.5" y="515" text-anchor="middle" font-family="Arial, sans-serif" font-size="11">6.017</text>
<rect x="572" y="488" width="95" height="36" fill="#ffffff" stroke="#d2d2d2"/>
<text x="619.5" y="515" text-anchor="middle" font-family="Arial, sans-serif" font-size="11">60.4</text>
<rect x="667" y="488" width="105" height="36" fill="#ffffff" stroke="#d2d2d2"/>
<text x="719.5" y="515" text-anchor="middle" font-family="Arial, sans-serif" font-size="11">294.9</text>
<rect x="147" y="524" width="90" height="36" fill="#f8fafc" stroke="#d2d2d2"/>
<text x="192.0" y="551" text-anchor="middle" font-family="Arial, sans-serif" font-size="11">300</text>
<rect x="237" y="524" width="70" height="36" fill="#f8fafc" stroke="#d2d2d2"/>
<text x="272.0" y="551" text-anchor="middle" font-family="Arial, sans-serif" font-size="11">2.0</text>
<rect x="307" y="524" width="85" height="36" fill="#f8fafc" stroke="#d2d2d2"/>
<text x="349.5" y="551" text-anchor="middle" font-family="Arial, sans-serif" font-size="11">0.400</text>
<rect x="392" y="524" width="85" height="36" fill="#f8fafc" stroke="#d2d2d2"/>
<text x="434.5" y="551" text-anchor="middle" font-family="Arial, sans-serif" font-size="11">0.600</text>
<rect x="477" y="524" width="95" height="36" fill="#f8fafc" stroke="#d2d2d2"/>
<text x="524.5" y="551" text-anchor="middle" font-family="Arial, sans-serif" font-size="11">4.328</text>
<rect x="572" y="524" width="95" height="36" fill="#f8fafc" stroke="#d2d2d2"/>
<text x="619.5" y="551" text-anchor="middle" font-family="Arial, sans-serif" font-size="11">86.4</text>
<rect x="667" y="524" width="105" height="36" fill="#f8fafc" stroke="#d2d2d2"/>
<text x="719.5" y="551" text-anchor="middle" font-family="Arial, sans-serif" font-size="11">288.8</text>
<rect x="147" y="560" width="90" height="36" fill="#ffffff" stroke="#d2d2d2"/>
<text x="192.0" y="587" text-anchor="middle" font-family="Arial, sans-serif" font-size="11">500</text>
<rect x="237" y="560" width="70" height="36" fill="#ffffff" stroke="#d2d2d2"/>
<text x="272.0" y="587" text-anchor="middle" font-family="Arial, sans-serif" font-size="11">0.5</text>
<rect x="307" y="560" width="85" height="36" fill="#ffffff" stroke="#d2d2d2"/>
<text x="349.5" y="587" text-anchor="middle" font-family="Arial, sans-serif" font-size="11">0.400</text>
<rect x="392" y="560" width="85" height="36" fill="#ffffff" stroke="#d2d2d2"/>
<text x="434.5" y="587" text-anchor="middle" font-family="Arial, sans-serif" font-size="11">0.600</text>
<rect x="477" y="560" width="95" height="36" fill="#ffffff" stroke="#d2d2d2"/>
<text x="524.5" y="587" text-anchor="middle" font-family="Arial, sans-serif" font-size="11">8.073</text>
<rect x="572" y="560" width="95" height="36" fill="#ffffff" stroke="#d2d2d2"/>
<text x="619.5" y="587" text-anchor="middle" font-family="Arial, sans-serif" font-size="11">71.4</text>
<rect x="667" y="560" width="105" height="36" fill="#ffffff" stroke="#d2d2d2"/>
<text x="719.5" y="587" text-anchor="middle" font-family="Arial, sans-serif" font-size="11">482.1</text>
<rect x="147" y="596" width="90" height="36" fill="#f8fafc" stroke="#d2d2d2"/>
<text x="192.0" y="623" text-anchor="middle" font-family="Arial, sans-serif" font-size="11">500</text>
<rect x="237" y="596" width="70" height="36" fill="#f8fafc" stroke="#d2d2d2"/>
<text x="272.0" y="623" text-anchor="middle" font-family="Arial, sans-serif" font-size="11">1.414</text>
<rect x="307" y="596" width="85" height="36" fill="#f8fafc" stroke="#d2d2d2"/>
<text x="349.5" y="623" text-anchor="middle" font-family="Arial, sans-serif" font-size="11">0.200</text>
<rect x="392" y="596" width="85" height="36" fill="#f8fafc" stroke="#d2d2d2"/>
<text x="434.5" y="623" text-anchor="middle" font-family="Arial, sans-serif" font-size="11">0.800</text>
<rect x="477" y="596" width="95" height="36" fill="#f8fafc" stroke="#d2d2d2"/>
<text x="524.5" y="623" text-anchor="middle" font-family="Arial, sans-serif" font-size="11">6.144</text>
<rect x="572" y="596" width="95" height="36" fill="#f8fafc" stroke="#d2d2d2"/>
<text x="619.5" y="623" text-anchor="middle" font-family="Arial, sans-serif" font-size="11">89.0</text>
<rect x="667" y="596" width="105" height="36" fill="#f8fafc" stroke="#d2d2d2"/>
<text x="719.5" y="623" text-anchor="middle" font-family="Arial, sans-serif" font-size="11">473.1</text>
<rect x="147" y="632" width="90" height="36" fill="#ffffff" stroke="#d2d2d2"/>
<text x="192.0" y="659" text-anchor="middle" font-family="Arial, sans-serif" font-size="11">500</text>
<rect x="237" y="632" width="70" height="36" fill="#ffffff" stroke="#d2d2d2"/>
<text x="272.0" y="659" text-anchor="middle" font-family="Arial, sans-serif" font-size="11">2.0</text>
<rect x="307" y="632" width="85" height="36" fill="#ffffff" stroke="#d2d2d2"/>
<text x="349.5" y="659" text-anchor="middle" font-family="Arial, sans-serif" font-size="11">0.800</text>
<rect x="392" y="632" width="85" height="36" fill="#ffffff" stroke="#d2d2d2"/>
<text x="434.5" y="659" text-anchor="middle" font-family="Arial, sans-serif" font-size="11">0.200</text>
<rect x="477" y="632" width="95" height="36" fill="#ffffff" stroke="#d2d2d2"/>
<text x="524.5" y="659" text-anchor="middle" font-family="Arial, sans-serif" font-size="11">7.192</text>
<rect x="572" y="632" width="95" height="36" fill="#ffffff" stroke="#d2d2d2"/>
<text x="619.5" y="659" text-anchor="middle" font-family="Arial, sans-serif" font-size="11">68.6</text>
<rect x="667" y="632" width="105" height="36" fill="#ffffff" stroke="#d2d2d2"/>
<text x="719.5" y="659" text-anchor="middle" font-family="Arial, sans-serif" font-size="11">485.5</text>
</svg>