<svg xmlns="http://www.w3.org/2000/svg" width="920" height="420" viewBox="0 0 920 420">
<rect width="100%" height="100%" fill="#fbfbfb"/>
<text x="460" y="42" text-anchor="middle" font-family="Hiragino Sans GB, Arial Unicode MS, sans-serif" font-size="26" font-weight="700">实验结果截图</text>
<text x="460" y="68" text-anchor="middle" font-family="Hiragino Sans GB, Arial Unicode MS, sans-serif" font-size="14" fill="#666">CSV 指标包括胜率、耗时、步数与搜索节点数</text>
<rect x="147" y="92" width="625" height="294" fill="#fff" stroke="#d2d2d2"/>
<rect x="147" y="92" width="90" height="42" fill="#e9eef8" stroke="#d2d2d2"/>
<text x="192.0" y="119" text-anchor="middle" font-family="Hiragino Sans GB, Arial Unicode MS, sans-serif" font-size="12" font-weight="700">模拟次数</text>
<rect x="237" y="92" width="70" height="42" fill="#e9eef8" stroke="#d2d2d2"/>
<text x="272.0" y="119" text-anchor="middle" font-family="Hiragino Sans GB, Arial Unicode MS, sans-serif" font-size="12" font-weight="700">UCT c</text>
<rect x="307" y="92" width="85" height="42" fill="#e9eef8" stroke="#d2d2d2"/>
<text x="349.5" y="119" text-anchor="middle" font-family="Hiragino Sans GB, Arial Unicode MS, sans-serif" font-size="12" font-weight="700">黑胜率</text>
<rect x="392" y="92" width="85" height="42" fill="#e9eef8" stroke="#d2d2d2"/>
<text x="434.5" y="119" text-anchor="middle" font-family="Hiragino Sans GB, Arial Unicode MS, sans-serif" font-size="12" font-weight="700">白胜率</text>
<rect x="477" y="92" width="95" height="42" fill="#e9eef8" stroke="#d2d2d2"/>
<text x="524.5" y="119" text-anchor="middle" font-family="Hiragino Sans GB, Arial Unicode MS, sans-serif" font-size="12" font-weight="700">每步耗时</text>
<rect x="572" y="92" width="95" height="42" fill="#e9eef8" stroke="#d2d2d2"/>
<text x="619.5" y="119" text-anchor="middle" font-family="Hiragino Sans GB, Arial Unicode MS, sans-serif" font-size="12" font-weight="700">平均步数</text>
<rect x="667" y="92" width="105" height="42" fill="#e9eef8" stroke="#d2d2d2"/>
<text x="719.5" y="119" text-anchor="middle" font-family="Hiragino Sans GB, Arial Unicode MS, sans-serif" font-size="12" font-weight="700">平均节点</text>
<rect x="147" y="134" width="90" height="42" fill="#ffffff" stroke="#d2d2d2"/>
<text x="192.0" y="161" text-anchor="middle" font-family="Arial, sans-serif" font-size="11">100</text>
<rect x="237" y="134" width="70" height="42" fill="#ffffff" stroke="#d2d2d2"/>
<text x="272.0" y="161" text-anchor="middle" font-family="Arial, sans-serif" font-size="11">0.5</text>
<rect x="307" y="134" width="85" height="42" fill="#ffffff" stroke="#d2d2d2"/>
<text x="349.5" y="161" text-anchor="middle" font-family="Arial, sans-serif" font-size="11">0.600</text>
<rect x="392" y="134" width="85" height="42" fill="#ffffff" stroke="#d2d2d2"/>
<text x="434.5" y="161" text-anchor="middle" font-family="Arial, sans-serif" font-size="11">0.400</text>
<rect x="477" y="134" width="95" height="42" fill="#ffffff" stroke="#d2d2d2"/>
<text x="524.5" y="161" text-anchor="middle" font-family="Arial, sans-serif" font-size="11">0.028</text>
<rect x="572" y="134" width="95" height="42" fill="#ffffff" stroke="#d2d2d2"/>
<text x="619.5" y="161" text-anchor="middle" font-family="Arial, sans-serif" font-size="11">48.8</text>
<rect x="667" y="134" width="105" height="42" fill="#ffffff" stroke="#d2d2d2"/>
<text x="719.5" y="161" text-anchor="middle" font-family="Arial, sans-serif" font-size="11">98.795</text>
<rect x="147" y="176" width="90" height="42" fill="#f8fafc" stroke="#d2d2d2"/>
<text x="192.0" y="203" text-anchor="middle" font-family="Arial, sans-serif" font-size="11">100</text>
<rect x="237" y="176" width="70" height="42" fill="#f8fafc" stroke="#d2d2d2"/>
<text x="272.0" y="203" text-anchor="middle" font-family="Arial, sans-serif" font-size="11">1.414</text>
<rect x="307" y="176" width="85" height="42" fill="#f8fafc" stroke="#d2d2d2"/>
<text x="349.5" y="203" text-anchor="middle" font-family="Arial, sans-serif" font-size="11">0.400</text>
<rect x="392" y="176" width="85" height="42" fill="#f8fafc" stroke="#d2d2d2"/>
<text x="434.5" y="203" text-anchor="middle" font-family="Arial, sans-serif" font-size="11">0.600</text>
<rect x="477" y="176" width="95" height="42" fill="#f8fafc" stroke="#d2d2d2"/>
<text x="524.5" y="203" text-anchor="middle" font-family="Arial, sans-serif" font-size="11">0.024</text>
<rect x="572" y="176" width="95" height="42" fill="#f8fafc" stroke="#d2d2d2"/>
<text x="619.5" y="203" text-anchor="middle" font-family="Arial, sans-serif" font-size="11">49.0</text>
<rect x="667" y="176" width="105" height="42" fill="#f8fafc" stroke="#d2d2d2"/>
<text x="719.5" y="203" text-anchor="middle" font-family="Arial, sans-serif" font-size="11">98.616</text>
<rect x="147" y="218" width="90" height="42" fill="#ffffff" stroke="#d2d2d2"/>
<text x="192.0" y="245" text-anchor="middle" font-family="Arial, sans-serif" font-size="11">100</text>
<rect x="237" y="218" width="70" height="42" fill="#ffffff" stroke="#d2d2d2"/>
<text x="272.0" y="245" text-anchor="middle" font-family="Arial, sans-serif" font-size="11">2.0</text>
<rect x="307" y="218" width="85" height="42" fill="#ffffff" stroke="#d2d2d2"/>
<text x="349.5" y="245" text-anchor="middle" font-family="Arial, sans-serif" font-size="11">0.400</text>
<rect x="392" y="218" width="85" height="42" fill="#ffffff" stroke="#d2d2d2"/>
<text x="434.5" y="245" text-anchor="middle" font-family="Arial, sans-serif" font-size="11">0.400</text>
<rect x="477" y="218" width="95" height="42" fill="#ffffff" stroke="#d2d2d2"/>
<text x="524.5" y="245" text-anchor="middle" font-family="Arial, sans-serif" font-size="11">0.025</text>
<rect x="572" y="218" width="95" height="42" fill="#ffffff" stroke="#d2d2d2"/>
<text x="619.5" y="245" text-anchor="middle" font-family="Arial, sans-serif" font-size="11">49.0</text>
<rect x="667" y="218" width="105" height="42" fill="#ffffff" stroke="#d2d2d2"/>
<text x="719.5" y="245" text-anchor="middle" font-family="Arial, sans-serif" font-size="11">98.539</text>
<rect x="147" y="260" width="90" height="42" fill="#f8fafc" stroke="#d2d2d2"/>
<text x="192.0" y="287" text-anchor="middle" font-family="Arial, sans-serif" font-size="11">300</text>
<rect x="237" y="260" width="70" height="42" fill="#f8fafc" stroke="#d2d2d2"/>
<text x="272.0" y="287" text-anchor="middle" font-family="Arial, sans-serif" font-size="11">0.5</text>
<rect x="307" y="260" width="85" height="42" fill="#f8fafc" stroke="#d2d2d2"/>
<text x="349.5" y="287" text-anchor="middle" font-family="Arial, sans-serif" font-size="11">0.200</text>
<rect x="392" y="260" width="85" height="42" fill="#f8fafc" stroke="#d2d2d2"/>
<text x="434.5" y="287" text-anchor="middle" font-family="Arial, sans-serif" font-size="11">0.800</text>
<rect x="477" y="260" width="95" height="42" fill="#f8fafc" stroke="#d2d2d2"/>
<text x="524.5" y="287" text-anchor="middle" font-family="Arial, sans-serif" font-size="11">0.072</text>
<rect x="572" y="260" width="95" height="42" fill="#f8fafc" stroke="#d2d2d2"/>
<text x="619.5" y="287" text-anchor="middle" font-family="Arial, sans-serif" font-size="11">49.0</text>
<rect x="667" y="260" width="105" height="42" fill="#f8fafc" stroke="#d2d2d2"/>
<text x="719.5" y="287" text-anchor="middle" font-family="Arial, sans-serif" font-size="11">290.759</text>
<rect x="147" y="302" width="90" height="42" fill="#ffffff" stroke="#d2d2d2"/>
<text x="192.0" y="329" text-anchor="middle" font-family="Arial, sans-serif" font-size="11">300</text>
<rect x="237" y="302" width="70" height="42" fill="#ffffff" stroke="#d2d2d2"/>
<text x="272.0" y="329" text-anchor="middle" font-family="Arial, sans-serif" font-size="11">1.414</text>
<rect x="307" y="302" width="85" height="42" fill="#ffffff" stroke="#d2d2d2"/>
<text x="349.5" y="329" text-anchor="middle" font-family="Arial, sans-serif" font-size="11">0.600</text>
<rect x="392" y="302" width="85" height="42" fill="#ffffff" stroke="#d2d2d2"/>
<text x="434.5" y="329" text-anchor="middle" font-family="Arial, sans-serif" font-size="11">0.400</text>
<rect x="477" y="302" width="95" height="42" fill="#ffffff" stroke="#d2d2d2"/>
<text x="524.5" y="329" text-anchor="middle" font-family="Arial, sans-serif" font-size="11">0.083</text>
<rect x="572" y="302" width="95" height="42" fill="#ffffff" stroke="#d2d2d2"/>
<text x="619.5" y="329" text-anchor="middle" font-family="Arial, sans-serif" font-size="11">49.0</text>
<rect x="667" y="302" width="105" height="42" fill="#ffffff" stroke="#d2d2d2"/>
<text x="719.5" y="329" text-anchor="middle" font-family="Arial, sans-serif" font-size="11">289.882</text>
<rect x="147" y="344" width="90" height="42" fill="#f8fafc" stroke="#d2d2d2"/>
<text x="192.0" y="371" text-anchor="middle" font-family="Arial, sans-serif" font-size="11">300</text>
<rect x="237" y="344" width="70" height="42" fill="#f8fafc" stroke="#d2d2d2"/>
<text x="272.0" y="371" text-anchor="middle" font-family="Arial, sans-serif" font-size="11">2.0</text>
<rect x="307" y="344" width="85" height="42" fill="#f8fafc" stroke="#d2d2d2"/>
<text x="349.5" y="371" text-anchor="middle" font-family="Arial, sans-serif" font-size="11">0.600</text>
<rect x="392" y="344" width="85" height="42" fill="#f8fafc" stroke="#d2d2d2"/>
<text x="434.5" y="371" text-anchor="middle" font-family="Arial, sans-serif" font-size="11">0.400</text>
<rect x="477" y="344" width="95" height="42" fill="#f8fafc" stroke="#d2d2d2"/>
<text x="524.5" y="371" text-anchor="middle" font-family="Arial, sans-serif" font-size="11">0.076</text>
<rect x="572" y="344" width="95" height="42" fill="#f8fafc" stroke="#d2d2d2"/>
<text x="619.5" y="371" text-anchor="middle" font-family="Arial, sans-serif" font-size="11">49.0</text>
<rect x="667" y="344" width="105" height="42" fill="#f8fafc" stroke="#d2d2d2"/>
<text x="719.5" y="371" text-anchor="middle" font-family="Arial, sans-serif" font-size="11">290.808</text>
</svg>